<?xml version="1.0" encoding="UTF-8" standalone="no"?>
        <svg 
    viewBox="11.572265625 -77.2705078125 439.599609375 50.9033203125"
    width="428.02734375"
    height="128.173828125"
   xmlns="http://www.w3.org/2000/svg"
   xmlns:svg="http://www.w3.org/2000/svg">
   <path d="M69.73-23.29L69.73-23.29Q73.68-29.59 84.45-50.83Q95.21-72.07 96.53-76.17L96.53-76.17Q96.53-77.05 94.70-77.27Q92.87-77.49 88.18-77.49L88.18-77.49Q81.30-77.49 78.96-78.81Q76.61-80.13 76.61-83.94L76.61-83.94Q76.61-84.23 76.61-84.52L76.61-84.52Q76.61-87.45 79.03-88.18Q81.45-88.92 85.55-88.92L85.55-88.92Q88.18-88.92 91.55-88.62L91.55-88.62L101.37-87.89L101.37-96.24Q101.37-99.76 101.51-102.47Q101.66-105.18 101.81-105.47L101.81-105.47Q101.81-106.05 101.95-106.86Q102.10-107.67 102.10-108.11L102.10-108.11Q102.10-108.98 102.61-109.72Q103.13-110.45 103.71-111.33L103.71-111.33Q105.32-112.65 107.45-112.65Q109.57-112.65 111.33-111.33L111.33-111.33Q112.35-110.74 112.65-108.54Q112.94-106.35 112.94-99.17L112.94-99.17L112.65-88.04L123.19-88.04Q130.08-88.04 132.35-87.67Q134.62-87.30 135.94-85.69L135.94-85.69Q137.99-83.94 138.13-82.84Q138.28-81.74 138.28-81.30L138.28-81.30Q138.28-79.69 137.26-78.08L137.26-78.08Q136.38-77.05 134.03-76.76Q131.69-76.46 124.80-76.46L124.80-76.46Q121.73-76.61 119.53-76.61L119.53-76.61Q117.33-76.61 115.50-76.39Q113.67-76.17 113.67-75.59L113.67-75.59Q113.67-75.44 113.67-75.44L113.67-75.44Q113.67-74.85 114.77-73.17Q115.87-71.48 117.48-69.58L117.48-69.58Q123.78-61.52 127.08-57.13Q130.37-52.73 131.10-50.68L131.10-50.68Q133.74-44.82 136.01-39.55Q138.28-34.28 138.28-33.25L138.28-33.25Q138.28-31.93 136.67-30.91Q135.06-29.88 133.74-29.88L133.74-29.88Q133.30-29.88 133.01-29.88L133.01-29.88Q131.10-30.32 128.91-33.11Q126.71-35.89 123.19-41.89L123.19-41.89Q120.56-46.73 117.11-51.49Q113.67-56.25 112.65-56.69L112.65-56.69Q112.35-56.40 112.35-47.83Q112.35-39.26 112.65-26.37L112.65-26.37Q112.79-19.34 112.79-13.77L112.79-13.77Q112.79-1.46 112.21 4.25Q111.62 9.96 108.98 10.55L108.98 10.55Q107.96 10.99 106.93 10.99L106.93 10.99Q105.91 10.99 104.30 10.47Q102.69 9.96 101.81 8.20L101.81 8.20Q101.37 7.03 101.15 1.17Q100.93-4.69 100.93-9.96L100.93-9.96Q100.93-15.38 101.07-22.12L101.07-22.12Q101.22-30.18 101.22-35.89L101.22-35.89Q101.22-46.14 100.85-50.17Q100.49-54.20 99.46-54.20L99.46-54.20Q99.17-54.20 98.73-53.76L98.73-53.76Q98.14-53.32 97.78-52.81Q97.41-52.29 97.41-51.71L97.41-51.71Q97.41-51.12 96.09-48.27Q94.78-45.41 92.58-41.46L92.58-41.46Q84.96-25.93 81.01-20.36Q77.05-14.79 73.10-14.06L73.10-14.06Q71.19-13.62 69.73-13.62L69.73-13.62Q67.09-13.62 66.65-14.65Q66.21-15.67 66.21-16.26L66.21-16.26Q66.21-18.75 69.73-23.29ZM11.57-28.27L11.57-28.27Q11.72-31.64 15.09-38.82L15.09-38.82Q16.99-42.77 19.48-48.19Q21.97-53.61 24.02-58.01L24.02-58.01Q25.93-62.55 27.76-66.65Q29.59-70.75 30.62-72.51L30.62-72.51Q31.49-74.41 31.86-75.59Q32.23-76.76 32.23-77.05L32.23-77.05Q31.93-77.34 29.59-77.42Q27.25-77.49 24.02-77.49L24.02-77.49Q19.92-77.49 17.94-77.93Q15.97-78.37 14.79-79.69L14.79-79.69Q13.77-80.71 13.62-81.45Q13.48-82.18 13.48-82.76L13.48-82.76Q13.48-83.20 13.48-83.64L13.48-83.64Q14.36-86.72 16.70-87.67Q19.04-88.62 26.51-88.92L26.51-88.92L36.18-89.21L35.89-99.46Q35.89-101.95 35.89-103.86L35.89-103.86Q35.89-106.79 36.04-108.91Q36.18-111.04 37.06-112.35L37.06-112.35Q38.53-114.26 39.84-114.48Q41.16-114.70 41.60-114.70L41.60-114.70Q43.36-114.70 45.41-113.67L45.41-113.67Q46.44-113.09 46.88-110.89Q47.31-108.69 47.31-100.78L47.31-100.78L47.31-88.92L55.96-88.92Q59.62-88.92 62.70-88.77Q65.77-88.62 66.80-88.33L66.80-88.33Q68.85-87.60 69.65-86.06Q70.46-84.52 70.46-83.64L70.46-83.64Q70.46-82.47 69.73-81.45L69.73-81.45Q68.12-79.10 65.99-78.30Q63.87-77.49 59.47-77.49L59.47-77.49Q56.54-77.49 54.71-77.42Q52.88-77.34 52.88-77.05L52.88-77.05Q52.88-76.46 54.42-74.63Q55.96-72.80 58.30-70.46L58.30-70.46Q64.45-64.16 66.65-61.08Q68.85-58.01 68.85-56.10L68.85-56.10Q68.85-55.96 68.85-55.66L68.85-55.66Q68.85-53.32 67.02-51.56Q65.19-49.80 62.55-49.80L62.55-49.80Q62.40-49.80 62.26-49.80L62.26-49.80Q60.79-49.80 59.03-51.42Q57.28-53.03 52.59-58.59L52.59-58.59Q51.56-59.91 50.76-60.64Q49.95-61.38 49.51-61.38L49.51-61.38Q49.51-61.38 49.37-61.23L49.37-61.23Q48.93-60.64 48.63-49.07Q48.34-37.50 48.34-15.38L48.34-15.38Q48.05-1.03 47.83 3.81Q47.61 8.64 46.44 9.23L46.44 9.23Q45.12 10.55 43.14 10.55Q41.16 10.55 39.40 9.52L39.40 9.52Q38.38 9.23 37.94 3.00Q37.50-3.22 37.50-25.05L37.50-25.05Q37.50-39.26 37.28-48.78Q37.06-58.30 36.77-58.59L36.77-58.59Q36.47-58.59 35.82-57.42Q35.16-56.25 34.42-54.64L34.42-54.64Q33.54-52.73 32.52-50.24Q31.49-47.75 30.47-45.70L30.47-45.70Q29.59-43.51 28.93-42.04Q28.27-40.58 28.27-40.43L28.27-40.43Q27.98-40.14 26.95-37.65Q25.93-35.16 24.32-31.64L24.32-31.64Q21.39-25.34 19.85-24.02Q18.31-22.71 16.99-22.71L16.99-22.71Q15.97-22.71 14.65-23.44L14.65-23.44Q11.57-24.76 11.57-27.98L11.57-27.98Q11.57-28.13 11.57-28.27ZM224.85-84.38L224.85-84.38Q226.17-86.57 232.62-86.57L232.62-86.57Q233.64-86.57 234.81-86.57L234.81-86.57L242.72-86.57L242.72-89.21Q243.31-92.87 247.56-101.44Q251.81-110.01 254.15-112.35L254.15-112.35Q255.91-113.67 256.27-113.75Q256.64-113.82 256.79-113.82L256.79-113.82Q257.52-113.82 259.13-113.09L259.13-113.09Q262.06-112.21 262.06-109.13L262.06-109.13Q262.06-108.40 261.55-105.76Q261.04-103.13 254.15-89.94L254.15-89.94L252.54-86.57L264.99-86.28Q275.54-86.28 281.03-85.62Q286.52-84.96 287.55-83.35L287.55-83.35Q287.99-82.91 287.99-77.78L287.99-77.78Q287.99-75.15 287.77-67.53Q287.55-59.91 286.08-33.25L286.08-33.25Q285.21-23.73 284.84-15.82Q284.47-7.91 284.47-5.57L284.47-5.57Q284.18-2.93 283.81-1.10Q283.45 0.73 282.57 1.32L282.57 1.32Q282.13 2.05 276.20 2.49Q270.26 2.93 254.88 3.08L254.88 3.08Q242.72 3.52 236.57 3.52L236.57 3.52Q233.50 3.52 230.35 3.30Q227.20 3.08 226.76 1.76L226.76 1.76Q225.44 1.03 225-2.78Q224.56-6.59 224.56-19.78L224.56-19.78Q224.56-28.27 224.41-35.67Q224.27-43.07 224.27-46.14L224.27-46.14Q224.12-49.07 223.97-55.37Q223.83-61.67 223.83-68.26L223.83-68.26Q223.68-71.92 223.68-74.71L223.68-74.71Q223.68-82.47 224.85-84.38ZM162.74-31.79L162.74-31.79Q163.92-35.60 167.87-45.12L167.87-45.12Q171.83-54.93 176.07-64.23Q180.32-73.54 183.69-79.98L183.69-79.98Q183.69-80.13 181.71-80.42Q179.74-80.71 176.81-81.01L176.81-81.01Q170.21-81.45 168.24-82.25Q166.26-83.06 165.82-85.25L165.82-85.25Q165.38-86.28 165.38-87.16L165.38-87.16Q165.38-87.45 165.45-88.04Q165.53-88.62 166.26-89.94L166.26-89.94Q167.14-91.55 168.38-91.70Q169.63-91.85 170.65-91.85L170.65-91.85Q172.85-91.85 177.10-91.55L177.10-91.55L186.62-90.97L186.91-96.53Q186.91-102.83 187.72-107.45Q188.53-112.06 189.84-113.09L189.84-113.09Q191.02-113.82 192.63-113.82L192.63-113.82Q192.92-113.82 194.02-113.75Q195.12-113.67 196.58-112.65L196.58-112.65Q197.75-112.06 197.97-109.86Q198.19-107.67 198.49-101.51L198.49-101.51L198.49-91.55L205.66-91.26Q208.74-91.26 211.01-90.89Q213.28-90.53 213.72-90.23L213.72-90.23Q215.48-88.48 215.48-86.72L215.48-86.72Q215.48-85.40 214.09-83.20Q212.70-81.01 208.01-80.42L208.01-80.42Q206.10-80.13 204.79-80.05Q203.47-79.98 203.17-79.69L203.17-79.69Q203.17-79.39 204.42-77.27Q205.66-75.15 207.71-72.22L207.71-72.22Q211.38-66.50 211.74-64.60Q212.11-62.70 212.11-62.11L212.11-62.11Q212.11-59.91 210.35-58.30L210.35-58.30Q209.18-57.28 207.86-57.28L207.86-57.28Q207.13-57.28 205.74-57.93Q204.35-58.59 202.15-61.67L202.15-61.67Q201.71-62.84 200.90-63.72Q200.10-64.60 199.51-64.60L199.51-64.60Q199.07-64.60 198.93-55.22Q198.78-45.85 198.78-26.95L198.78-26.95Q198.93-16.99 198.93-9.67L198.93-9.67Q198.93-2.34 198.71 4.47Q198.49 11.28 197.90 11.87L197.90 11.87Q196.73 13.18 194.68 13.18L194.68 13.18Q194.38 13.18 192.99 13.04Q191.60 12.89 189.99 10.99L189.99 10.99Q188.96 10.25 188.75 3.00Q188.53-4.25 188.23-26.07L188.23-26.07Q188.23-40.58 187.94-50.61Q187.65-60.64 187.35-61.52L187.35-61.52Q187.35-61.52 187.21-61.52L187.21-61.52Q187.06-61.52 186.69-61.23Q186.33-60.94 186.04-60.21L186.04-60.21Q185.89-59.33 185.23-57.79Q184.57-56.25 183.98-54.64L183.98-54.64Q183.25-52.73 181.49-48.93Q179.74-45.12 178.13-40.87L178.13-40.87Q174.17-31.35 171.90-27.54Q169.63-23.73 167.72-23.73L167.72-23.73Q167.58-23.73 167.43-23.73L167.43-23.73Q165.53-23.73 164.36-24.54Q163.18-25.34 162.30-27.25L162.30-27.25Q162.01-27.54 162.01-28.27L162.01-28.27Q162.01-29.44 162.74-31.79ZM235.69-12.16L235.69-12.16L236.13-7.62L272.90-7.62L273.34-10.25Q273.63-11.57 274.00-15.67Q274.37-19.78 274.66-25.05L274.66-25.05L275.24-36.91L266.31-36.91Q262.50-36.91 257.01-37.21Q251.51-37.50 246.68-37.79L246.68-37.79L236.13-38.23L236.13-32.67Q235.99-30.32 235.84-27.17Q235.69-24.02 235.69-21.97L235.69-21.97Q235.40-19.48 235.40-16.85Q235.40-14.21 235.69-12.16ZM255.47-74.85L235.11-74.85L235.11-62.26Q235.11-56.98 235.40-53.17Q235.69-49.37 235.99-49.07L235.99-49.07Q236.43-48.78 242.14-48.63Q247.85-48.49 255.91-48.34L255.91-48.34L275.54-48.05L276.27-60.35Q276.56-65.63 276.56-69.58L276.56-69.58L276.56-73.83Q276.27-74.41 271.66-74.63Q267.04-74.85 255.47-74.85L255.47-74.85ZM366.21-35.30L366.21-35.30Q366.21-49.51 366.50-55.30Q366.80-61.08 367.53-62.11L367.53-62.11L368.85-64.31L397.85-64.31Q412.06-64.31 419.90-64.01Q427.73-63.72 429.05-63.28L429.05-63.28Q431.10-62.11 431.76-59.33Q432.42-56.54 432.42-52.88L432.42-52.88Q432.42-50.39 432.13-46.88L432.13-46.88Q431.84-42.92 431.47-35.01Q431.10-27.10 431.10-18.60L431.10-18.60Q430.52-10.55 430.30-4.47Q430.08 1.61 430.08 2.49L430.08 2.49Q429.20 4.83 427.95 5.05Q426.71 5.27 426.12 5.27L426.12 5.27Q424.22 5.27 421.29 4.25L421.29 4.25Q415.87 2.49 414.11 1.03Q412.35-0.44 412.35-2.78L412.35-2.78Q412.35-5.71 413.67-6.88Q414.99-8.06 418.21-8.35L418.21-8.35L421.58-8.64L422.17-26.37L409.72-26.37L409.72-12.01Q409.72-1.03 408.98 1.61Q408.25 4.25 406.35 4.25L406.35 4.25Q405.47 4.25 404.44 3.81L404.44 3.81L402.10 3.22L402.10-26.37L393.46-26.37L393.46 3.22L390.97 4.25Q389.79 4.98 388.92 4.98L388.92 4.98Q387.45 4.98 386.57 2.49Q385.69 0 385.69-11.87L385.69-11.87L385.55-26.37L377.34-26.37L377.34-10.25Q377.34-2.05 377.05 2.05Q376.76 6.15 376.32 6.59L376.32 6.59Q375 7.91 372.80 7.91L372.80 7.91Q372.66 7.91 371.41 7.84Q370.17 7.76 368.85 6.45L368.85 6.45Q367.53 5.13 366.87-5.05Q366.21-15.23 366.21-35.30ZM314.06-50.54L314.06-50.54Q315.09-51.86 317.07-54.64Q319.04-57.42 320.95-60.35L320.95-60.35Q322.71-63.43 324.83-66.36Q326.95-69.29 328.27-70.61L328.27-70.61L331.20-73.83L328.86-76.46Q327.69-77.49 325.85-79.61Q324.02-81.74 322.27-83.79L322.27-83.79Q320.07-85.84 318.90-87.74Q317.72-89.65 317.43-90.09L317.43-90.09Q317.72-90.97 319.70-93.46Q321.68-95.95 324.90-99.02L324.90-99.02Q327.98-102.25 330.76-105.54Q333.54-108.84 334.86-110.45L334.86-110.45Q336.47-112.79 337.65-113.75Q338.82-114.70 339.84-114.70L339.84-114.70Q342.04-114.40 344.02-112.79Q346.00-111.18 346.00-109.57L346.00-109.57Q346.00-108.11 342.92-103.86Q339.84-99.61 335.89-95.36L335.89-95.36L331.49-90.97L338.23-84.08L340.72-87.45Q343.36-90.97 345.70-90.97L345.70-90.97Q347.75-90.67 349.73-88.92Q351.71-87.16 351.71-85.40L351.71-85.40Q351.71-83.79 348.27-78.66Q344.82-73.54 337.79-64.31L337.79-64.31Q334.28-60.06 332.23-57.06Q330.18-54.05 329.88-53.47L329.88-53.47Q330.18-53.17 332.15-53.03Q334.13-52.88 336.91-52.88L336.91-52.88L344.09-52.88L343.51-57.13Q343.36-58.01 343.36-58.89L343.36-58.89Q343.36-61.38 344.53-63.21Q345.70-65.04 348.34-65.04L348.34-65.04Q348.63-65.04 348.93-65.04L348.93-65.04Q350.68-65.04 352.15-63.50Q353.61-61.96 356.98-55.37L356.98-55.37Q358.89-51.56 360.57-48.56Q362.26-45.56 362.84-44.82L362.84-44.82Q364.16-42.77 364.16-40.28L364.16-40.28Q364.16-39.84 364.01-38.23Q363.87-36.62 361.82-35.30L361.82-35.30Q359.91-33.98 358.30-33.98L358.30-33.98Q357.42-33.98 356.03-34.64Q354.64-35.30 353.32-38.67L353.32-38.67L351.71-42.33L340.43-42.33L340.43-17.87Q340.43-2.78 340.14 2.49Q339.84 7.76 338.82 8.79L338.82 8.79Q337.50 10.40 336.40 10.55Q335.30 10.69 335.01 10.69L335.01 10.69Q333.25 10.69 331.49 9.52L331.49 9.52Q330.32 9.23 329.81 4.54Q329.30-0.15 329.00-16.55L329.00-16.55L328.86-41.31L321.97-41.31Q314.50-41.60 313.18-43.21Q311.87-44.82 311.87-45.85L311.87-45.85Q311.87-47.75 314.06-50.54ZM358.59-78.37L358.59-78.37Q361.82-82.76 375-95.65L375-95.65Q382.91-103.27 388.40-108.69Q393.90-114.11 394.78-114.70L394.78-114.70Q395.21-114.84 395.65-114.92Q396.09-114.99 396.24-114.99L396.24-114.99Q396.68-114.99 397.12-114.84L397.12-114.84Q397.56-114.84 398.22-114.77Q398.88-114.70 399.17-114.70L399.17-114.70Q399.76-114.40 400.93-113.45Q402.10-112.50 403.71-110.89L403.71-110.89Q407.96-106.93 414.11-101.59Q420.26-96.24 425.10-92.43L425.10-92.43Q429.79-88.77 433.89-84.96Q437.99-81.15 439.31-79.25L439.31-79.25Q439.60-78.52 439.60-77.64L439.60-77.64Q439.60-76.76 438.94-75.37Q438.28-73.97 436.08-72.66L436.08-72.66Q435.21-72.22 434.33-72.22L434.33-72.22Q433.45-72.22 431.91-72.73Q430.37-73.24 428.17-75.29L428.17-75.29Q427.44-76.17 425.61-77.64Q423.78-79.10 421.88-80.42L421.88-80.42Q419.97-81.88 415.94-85.47Q411.91-89.06 407.37-93.02L407.37-93.02L397.12-102.25L382.32-87.74Q376.03-81.45 370.97-76.83Q365.92-72.22 364.89-71.34L364.89-71.34Q363.28-70.31 361.38-70.31L361.38-70.31Q360.94-70.31 359.62-70.46Q358.30-70.61 357.28-72.22L357.28-72.22Q356.54-72.95 356.54-73.97L356.54-73.97Q356.54-75.59 358.59-78.37ZM382.91-82.18L382.91-82.18Q385.69-83.06 397.12-83.20L397.12-83.20Q403.42-83.50 408.25-83.50L408.25-83.50L413.96-83.50Q417.33-82.47 417.70-81.15Q418.07-79.83 418.07-79.39L418.07-79.39Q418.07-77.64 416.31-75.59L416.31-75.59Q415.58-74.27 412.43-74.05Q409.28-73.83 398.88-73.83L398.88-73.83Q395.95-73.83 393.46-73.83L393.46-73.83Q385.99-73.83 383.13-74.56Q380.27-75.29 380.27-77.78L380.27-77.78Q380.27-77.93 380.27-78.22L380.27-78.22Q380.27-78.52 380.27-78.81L380.27-78.81Q380.27-81.30 382.91-82.18ZM345.12-27.83L345.12-27.83Q346.44-30.03 347.90-30.10Q349.37-30.18 349.66-30.18L349.66-30.18Q352.15-30.18 353.91-28.42L353.91-28.42Q356.54-24.76 358.74-18.68Q360.94-12.60 360.94-9.38L360.94-9.38Q360.94-8.94 360.94-8.64L360.94-8.64Q360.21-6.74 358.52-6.08Q356.84-5.42 355.96-5.42L355.96-5.42Q354.79-5.42 353.91-6.01L353.91-6.01Q353.32-6.59 351.71-9.45Q350.10-12.30 348.34-16.26L348.34-16.26Q345.41-22.41 345.04-23.88Q344.68-25.34 344.68-26.07L344.68-26.07Q344.68-27.10 345.12-27.83ZM311.43-15.97L311.43-15.97Q311.87-18.90 312.96-21.83Q314.06-24.76 314.79-26.07L314.79-26.07Q315.67-27.69 316.85-28.42Q318.02-29.15 319.63-29.15L319.63-29.15Q322.71-29.15 323.14-27.61Q323.58-26.07 323.58-24.90L323.58-24.90Q323.58-22.41 322.71-18.46L322.71-18.46Q320.36-7.03 319.26-5.27Q318.16-3.52 316.55-3.52L316.55-3.52Q315.67-3.52 314.36-3.96L314.36-3.96Q311.13-4.69 310.69-6.52Q310.25-8.35 310.25-9.38L310.25-9.38Q310.25-11.87 311.43-15.97ZM421.88-53.76L409.42-53.76L410.01-37.06L421.88-36.62L421.88-53.76ZM377.34-53.76L377.34-38.67L384.96-38.67L384.96-53.76L377.34-53.76ZM394.34-39.11L394.34-39.11Q394.78-37.94 396.68-37.94L396.68-37.94Q397.12-37.94 397.56-37.94L397.56-37.94L401.07-37.65L401.07-43.51Q401.07-46.14 400.93-48.34Q400.78-50.54 400.49-51.56L400.49-51.56Q400.20-52.88 399.46-53.32Q398.73-53.76 397.12-53.76L397.12-53.76Q396.68-53.91 396.24-53.91L396.24-53.91Q395.07-53.91 394.78-53.17Q394.48-52.44 394.19-49.22L394.19-49.22Q394.04-45.70 394.04-43.51L394.04-43.51Q394.04-39.99 394.34-39.11Z"/>
    </svg>
        