<svg width="252" height="252" version="1.1" xmlns="http://www.w3.org/2000/svg" xmlns:xlink="http://www.w3.org/1999/xlink"><path d="M125.75 71.61L125.75 71.61Q127.97 67.92 138.80 67.92L138.80 67.92Q140.52 67.92 142.49 67.92L142.49 67.92L155.78 67.92L155.78 63.49Q156.76 57.34 163.90 42.94Q171.04 28.55 174.97 24.61L174.97 24.61Q177.93 22.39 178.54 22.27Q179.16 22.15 179.40 22.15L179.40 22.15Q180.63 22.15 183.34 23.38L183.34 23.38Q188.26 24.86 188.26 30.02L188.26 30.02Q188.26 31.25 187.40 35.68Q186.54 40.11 174.97 62.26L174.97 62.26L172.27 67.92L193.18 68.41Q210.90 68.41 220.13 69.52Q229.36 70.63 231.08 73.34L231.08 73.34Q231.82 74.07 231.82 82.69L231.82 82.69Q231.82 87.12 231.45 99.91Q231.08 112.71 228.62 157.50L228.62 157.50Q227.14 173.50 226.53 186.79Q225.91 200.07 225.91 204.01L225.91 204.01Q225.42 208.44 224.81 211.52Q224.19 214.59 222.71 215.58L222.71 215.58Q221.98 216.81 212.01 217.55Q202.04 218.29 176.20 218.53L176.20 218.53Q155.78 219.27 145.44 219.27L145.44 219.27Q140.27 219.27 134.98 218.90Q129.69 218.53 128.95 216.32L128.95 216.32Q126.74 215.09 126 208.69Q125.26 202.29 125.26 180.14L125.26 180.14Q125.26 165.87 125.02 153.44Q124.77 141.01 124.77 135.84L124.77 135.84Q124.52 130.92 124.28 120.34Q124.03 109.76 124.03 98.68L124.03 98.68Q123.79 92.53 123.79 87.86L123.79 87.86Q123.79 74.81 125.75 71.61ZM21.41 159.96L21.41 159.96Q23.38 153.56 30.02 137.57L30.02 137.57Q36.67 121.08 43.80 105.45Q50.94 89.82 56.60 79.00L56.60 79.00Q56.60 78.75 53.28 78.26Q49.96 77.77 45.04 77.27L45.04 77.27Q33.96 76.54 30.64 75.18Q27.32 73.83 26.58 70.14L26.58 70.14Q25.84 68.41 25.84 66.94L25.84 66.94Q25.84 66.45 25.96 65.46Q26.09 64.48 27.32 62.26L27.32 62.26Q28.79 59.55 30.88 59.31Q32.98 59.06 34.70 59.06L34.70 59.06Q38.39 59.06 45.53 59.55L45.53 59.55L61.52 60.54L62.02 51.19Q62.02 40.61 63.37 32.85Q64.72 25.10 66.94 23.38L66.94 23.38Q68.91 22.15 71.61 22.15L71.61 22.15Q72.11 22.15 73.95 22.27Q75.80 22.39 78.26 24.12L78.26 24.12Q80.23 25.10 80.60 28.79Q80.96 32.48 81.46 42.82L81.46 42.82L81.46 59.55L93.52 60.05Q98.68 60.05 102.50 60.66Q106.31 61.28 107.05 61.77L107.05 61.77Q110.00 64.72 110.00 67.68L110.00 67.68Q110.00 69.89 107.67 73.58Q105.33 77.27 97.45 78.26L97.45 78.26Q94.25 78.75 92.04 78.87Q89.82 79.00 89.33 79.49L89.33 79.49Q89.33 79.98 91.42 83.55Q93.52 87.12 96.96 92.04L96.96 92.04Q103.11 101.64 103.73 104.84Q104.34 108.04 104.34 109.02L104.34 109.02Q104.34 112.71 101.39 115.42L101.39 115.42Q99.42 117.14 97.21 117.14L97.21 117.14Q95.98 117.14 93.64 116.03Q91.30 114.93 87.61 109.76L87.61 109.76Q86.87 107.79 85.52 106.31Q84.16 104.84 83.18 104.84L83.18 104.84Q82.44 104.84 82.20 120.59Q81.95 136.34 81.95 168.08L81.95 168.08Q82.20 184.82 82.20 197.12L82.20 197.12Q82.20 209.43 81.83 220.87Q81.46 232.31 80.47 233.30L80.47 233.30Q78.50 235.51 75.06 235.51L75.06 235.51Q74.57 235.51 72.23 235.27Q69.89 235.02 67.18 231.82L67.18 231.82Q65.46 230.59 65.09 218.41Q64.72 206.23 64.23 169.56L64.23 169.56Q64.23 145.20 63.74 128.34Q63.25 111.48 62.75 110.00L62.75 110.00Q62.75 110.00 62.51 110.00L62.51 110.00Q62.26 110.00 61.65 110.50Q61.03 110.99 60.54 112.22L60.54 112.22Q60.29 113.70 59.19 116.28Q58.08 118.86 57.09 121.57L57.09 121.57Q55.86 124.77 52.91 131.17Q49.96 137.57 47.25 144.70L47.25 144.70Q40.61 160.70 36.79 167.10Q32.98 173.50 29.78 173.50L29.78 173.50Q29.53 173.50 29.29 173.50L29.29 173.50Q26.09 173.50 24.12 172.14Q22.15 170.79 20.67 167.59L20.67 167.59Q20.18 167.10 20.18 165.87L20.18 165.87Q20.18 163.90 21.41 159.96ZM143.96 192.94L143.96 192.94L144.70 200.57L206.47 200.57L207.21 196.14Q207.70 193.92 208.32 187.03Q208.93 180.14 209.43 171.28L209.43 171.28L210.41 151.35L195.40 151.35Q189 151.35 179.77 150.86Q170.54 150.36 162.42 149.87L162.42 149.87L144.70 149.13L144.70 158.48Q144.46 162.42 144.21 167.71Q143.96 173.00 143.96 176.45L143.96 176.45Q143.47 180.63 143.47 185.06Q143.47 189.49 143.96 192.94ZM177.19 87.61L142.98 87.61L142.98 108.77Q142.98 117.63 143.47 124.03Q143.96 130.43 144.46 130.92L144.46 130.92Q145.20 131.41 154.79 131.66Q164.39 131.91 177.93 132.15L177.93 132.15L210.90 132.64L212.13 111.97Q212.63 103.11 212.63 96.47L212.63 96.47L212.63 89.33Q212.13 88.35 204.38 87.98Q196.63 87.61 177.19 87.61L177.19 87.61Z" stroke="#000" fill="black" /></svg>