<svg width="252" height="252" version="1.1" xmlns="http://www.w3.org/2000/svg" xmlns:xlink="http://www.w3.org/1999/xlink"><path d="M117.14 172.02L117.14 172.02Q123.79 161.44 141.87 125.75Q159.96 90.07 162.18 83.18L162.18 83.18Q162.18 81.70 159.10 81.33Q156.02 80.96 148.15 80.96L148.15 80.96Q136.58 80.96 132.64 78.75Q128.71 76.54 128.71 70.14L128.71 70.14Q128.71 69.64 128.71 69.15L128.71 69.15Q128.71 64.23 132.77 63Q136.83 61.77 143.72 61.77L143.72 61.77Q148.15 61.77 153.81 62.26L153.81 62.26L170.30 63.49L170.30 49.46Q170.30 43.56 170.54 39.01Q170.79 34.45 171.04 33.96L171.04 33.96Q171.04 32.98 171.28 31.62Q171.53 30.27 171.53 29.53L171.53 29.53Q171.53 28.05 172.39 26.82Q173.25 25.59 174.23 24.12L174.23 24.12Q176.94 21.90 180.51 21.90Q184.08 21.90 187.03 24.12L187.03 24.12Q188.75 25.10 189.25 28.79Q189.74 32.48 189.74 44.54L189.74 44.54L189.25 63.25L206.96 63.25Q218.53 63.25 222.35 63.86Q226.16 64.48 228.38 67.18L228.38 67.18Q231.82 70.14 232.07 71.98Q232.31 73.83 232.31 74.57L232.31 74.57Q232.31 77.27 230.59 79.98L230.59 79.98Q229.11 81.70 225.18 82.20Q221.24 82.69 209.67 82.69L209.67 82.69Q204.50 82.44 200.81 82.44L200.81 82.44Q197.12 82.44 194.04 82.81Q190.97 83.18 190.97 84.16L190.97 84.16Q190.97 84.41 190.97 84.41L190.97 84.41Q190.97 85.39 192.81 88.22Q194.66 91.05 197.37 94.25L197.37 94.25Q207.95 107.79 213.49 115.17Q219.02 122.55 220.25 126L220.25 126Q224.68 135.84 228.50 144.70Q232.31 153.56 232.31 155.29L232.31 155.29Q232.31 157.50 229.61 159.22Q226.90 160.95 224.68 160.95L224.68 160.95Q223.95 160.95 223.45 160.95L223.45 160.95Q220.25 160.21 216.56 155.53Q212.87 150.86 206.96 140.77L206.96 140.77Q202.54 132.64 196.75 124.65Q190.97 116.65 189.25 115.91L189.25 115.91Q188.75 116.40 188.75 130.80Q188.75 145.20 189.25 166.85L189.25 166.85Q189.49 178.66 189.49 188.02L189.49 188.02Q189.49 208.69 188.51 218.29Q187.52 227.88 183.09 228.87L183.09 228.87Q181.37 229.61 179.65 229.61L179.65 229.61Q177.93 229.61 175.22 228.74Q172.51 227.88 171.04 224.93L171.04 224.93Q170.30 222.96 169.93 213.12Q169.56 203.27 169.56 194.41L169.56 194.41Q169.56 185.31 169.80 173.99L169.80 173.99Q170.05 160.45 170.05 150.86L170.05 150.86Q170.05 133.63 169.44 126.86Q168.82 120.09 167.10 120.09L167.10 120.09Q166.61 120.09 165.87 120.83L165.87 120.83Q164.88 121.57 164.27 122.43Q163.65 123.29 163.65 124.28L163.65 124.28Q163.65 125.26 161.44 130.06Q159.22 134.86 155.53 141.50L155.53 141.50Q142.73 167.59 136.09 176.94Q129.45 186.29 122.80 187.52L122.80 187.52Q119.60 188.26 117.14 188.26L117.14 188.26Q112.71 188.26 111.97 186.54Q111.23 184.82 111.23 183.83L111.23 183.83Q111.23 179.65 117.14 172.02ZM19.44 163.65L19.44 163.65Q19.69 157.99 25.35 145.93L25.35 145.93Q28.55 139.29 32.73 130.18Q36.91 121.08 40.36 113.70L40.36 113.70Q43.56 106.07 46.63 99.18Q49.71 92.29 51.43 89.33L51.43 89.33Q52.91 86.13 53.53 84.16Q54.14 82.20 54.14 81.70L54.14 81.70Q53.65 81.21 49.71 81.09Q45.77 80.96 40.36 80.96L40.36 80.96Q33.47 80.96 30.15 80.23Q26.82 79.49 24.86 77.27L24.86 77.27Q23.13 75.55 22.89 74.32Q22.64 73.09 22.64 72.11L22.64 72.11Q22.64 71.37 22.64 70.63L22.64 70.63Q24.12 65.46 28.05 63.86Q31.99 62.26 44.54 61.77L44.54 61.77L60.79 61.28L60.29 44.05Q60.29 39.87 60.29 36.67L60.29 36.67Q60.29 31.75 60.54 28.18Q60.79 24.61 62.26 22.39L62.26 22.39Q64.72 19.20 66.94 18.83Q69.15 18.46 69.89 18.46L69.89 18.46Q72.84 18.46 76.29 20.18L76.29 20.18Q78.01 21.16 78.75 24.86Q79.49 28.55 79.49 41.84L79.49 41.84L79.49 61.77L94.01 61.77Q100.16 61.77 105.33 62.02Q110.50 62.26 112.22 62.75L112.22 62.75Q115.66 63.98 117.02 66.57Q118.37 69.15 118.37 70.63L118.37 70.63Q118.37 72.60 117.14 74.32L117.14 74.32Q114.43 78.26 110.87 79.61Q107.30 80.96 99.91 80.96L99.91 80.96Q94.99 80.96 91.92 81.09Q88.84 81.21 88.84 81.70L88.84 81.70Q88.84 82.69 91.42 85.76Q94.01 88.84 97.95 92.78L97.95 92.78Q108.28 103.36 111.97 108.53Q115.66 113.70 115.66 116.89L115.66 116.89Q115.66 117.14 115.66 117.63L115.66 117.63Q115.66 121.57 112.59 124.52Q109.51 127.48 105.08 127.48L105.08 127.48Q104.84 127.48 104.59 127.48L104.59 127.48Q102.13 127.48 99.18 124.77Q96.22 122.06 88.35 112.71L88.35 112.71Q86.63 110.50 85.27 109.27Q83.92 108.04 83.18 108.04L83.18 108.04Q83.18 108.04 82.93 108.28L82.93 108.28Q82.20 109.27 81.70 128.71Q81.21 148.15 81.21 185.31L81.21 185.31Q80.72 209.43 80.35 217.55Q79.98 225.67 78.01 226.65L78.01 226.65Q75.80 228.87 72.47 228.87Q69.15 228.87 66.20 227.14L66.20 227.14Q64.48 226.65 63.74 216.19Q63 205.73 63 169.07L63 169.07Q63 145.20 62.63 129.20Q62.26 113.20 61.77 112.71L61.77 112.71Q61.28 112.71 60.17 114.68Q59.06 116.65 57.83 119.36L57.83 119.36Q56.36 122.55 54.63 126.74Q52.91 130.92 51.19 134.37L51.19 134.37Q49.71 138.06 48.60 140.52Q47.50 142.98 47.50 143.23L47.50 143.23Q47.00 143.72 45.28 147.90Q43.56 152.09 40.85 157.99L40.85 157.99Q35.93 168.57 33.35 170.79Q30.76 173.00 28.55 173.00L28.55 173.00Q26.82 173.00 24.61 171.77L24.61 171.77Q19.44 169.56 19.44 164.14L19.44 164.14Q19.44 163.90 19.44 163.65Z" stroke="#000" fill="black" /></svg>