<svg width="252" height="252" version="1.1" xmlns="http://www.w3.org/2000/svg" xmlns:xlink="http://www.w3.org/1999/xlink"><path d="M111.23 151.84L111.23 151.84Q111.23 127.97 111.73 118.25Q112.22 108.53 113.45 106.80L113.45 106.80L115.66 103.11L164.39 103.11Q188.26 103.11 201.43 103.61Q214.59 104.10 216.81 104.84L216.81 104.84Q220.25 106.80 221.36 111.48Q222.47 116.16 222.47 122.31L222.47 122.31Q222.47 126.49 221.98 132.40L221.98 132.40Q221.48 139.04 220.87 152.33Q220.25 165.62 220.25 179.89L220.25 179.89Q219.27 193.43 218.90 203.64Q218.53 213.86 218.53 215.33L218.53 215.33Q217.05 219.27 214.96 219.64Q212.87 220.01 211.89 220.01L211.89 220.01Q208.69 220.01 203.77 218.29L203.77 218.29Q194.66 215.33 191.71 212.87Q188.75 210.41 188.75 206.47L188.75 206.47Q188.75 201.55 190.97 199.58Q193.18 197.61 198.60 197.12L198.60 197.12L204.26 196.63L205.24 166.85L184.32 166.85L184.32 190.97Q184.32 209.43 183.09 213.86Q181.86 218.29 178.66 218.29L178.66 218.29Q177.19 218.29 175.46 217.55L175.46 217.55L171.53 216.56L171.53 166.85L157.01 166.85L157.01 216.56L152.82 218.29Q150.86 219.52 149.38 219.52L149.38 219.52Q146.92 219.52 145.44 215.33Q143.96 211.15 143.96 191.21L143.96 191.21L143.72 166.85L129.94 166.85L129.94 193.92Q129.94 207.70 129.45 214.59Q128.95 221.48 128.21 222.22L128.21 222.22Q126 224.44 122.31 224.44L122.31 224.44Q122.06 224.44 119.97 224.31Q117.88 224.19 115.66 221.98L115.66 221.98Q113.45 219.76 112.34 202.66Q111.23 185.55 111.23 151.84ZM23.63 126.25L23.63 126.25Q25.35 124.03 28.67 119.36Q31.99 114.68 35.19 109.76L35.19 109.76Q38.14 104.59 41.71 99.67Q45.28 94.75 47.50 92.53L47.50 92.53L52.42 87.12L48.48 82.69Q46.51 80.96 43.44 77.40Q40.36 73.83 37.41 70.38L37.41 70.38Q33.71 66.94 31.75 63.74Q29.78 60.54 29.29 59.80L29.29 59.80Q29.78 58.32 33.10 54.14Q36.42 49.96 41.84 44.79L41.84 44.79Q47.00 39.38 51.68 33.84Q56.36 28.30 58.57 25.59L58.57 25.59Q61.28 21.66 63.25 20.06Q65.21 18.46 66.94 18.46L66.94 18.46Q70.63 18.95 73.95 21.66Q77.27 24.36 77.27 27.07L77.27 27.07Q77.27 29.53 72.11 36.67Q66.94 43.80 60.29 50.94L60.29 50.94L52.91 58.32L64.23 69.89L68.41 64.23Q72.84 58.32 76.78 58.32L76.78 58.32Q80.23 58.82 83.55 61.77Q86.87 64.72 86.87 67.68L86.87 67.68Q86.87 70.38 81.09 79.00Q75.30 87.61 63.49 103.11L63.49 103.11Q57.59 110.25 54.14 115.29Q50.70 120.34 50.20 121.32L50.20 121.32Q50.70 121.82 54.02 122.06Q57.34 122.31 62.02 122.31L62.02 122.31L74.07 122.31L73.09 115.17Q72.84 113.70 72.84 112.22L72.84 112.22Q72.84 108.04 74.81 104.96Q76.78 101.88 81.21 101.88L81.21 101.88Q81.70 101.88 82.20 101.88L82.20 101.88Q85.15 101.88 87.61 104.47Q90.07 107.05 95.73 118.13L95.73 118.13Q98.93 124.52 101.76 129.57Q104.59 134.61 105.57 135.84L105.57 135.84Q107.79 139.29 107.79 143.47L107.79 143.47Q107.79 144.21 107.54 146.92Q107.30 149.63 103.85 151.84L103.85 151.84Q100.65 154.05 97.95 154.05L97.95 154.05Q96.47 154.05 94.13 152.95Q91.79 151.84 89.58 146.18L89.58 146.18L86.87 140.03L67.92 140.03L67.92 181.13Q67.92 206.47 67.43 215.33Q66.94 224.19 65.21 225.91L65.21 225.91Q63 228.62 61.15 228.87Q59.31 229.11 58.82 229.11L58.82 229.11Q55.86 229.11 52.91 227.14L52.91 227.14Q50.94 226.65 50.08 218.78Q49.22 210.90 48.73 183.34L48.73 183.34L48.48 141.75L36.91 141.75Q24.36 141.26 22.15 138.55Q19.93 135.84 19.93 134.12L19.93 134.12Q19.93 130.92 23.63 126.25ZM98.44 79.49L98.44 79.49Q103.85 72.11 126 50.45L126 50.45Q139.29 37.65 148.52 28.55Q157.75 19.44 159.22 18.46L159.22 18.46Q159.96 18.21 160.70 18.09Q161.44 17.96 161.68 17.96L161.68 17.96Q162.42 17.96 163.16 18.21L163.16 18.21Q163.90 18.21 165.01 18.33Q166.11 18.46 166.61 18.46L166.61 18.46Q167.59 18.95 169.56 20.55Q171.53 22.15 174.23 24.86L174.23 24.86Q181.37 31.50 191.71 40.48Q202.04 49.46 210.16 55.86L210.16 55.86Q218.04 62.02 224.93 68.41Q231.82 74.81 234.04 78.01L234.04 78.01Q234.53 79.24 234.53 80.72L234.53 80.72Q234.53 82.20 233.42 84.53Q232.31 86.87 228.62 89.09L228.62 89.09Q227.14 89.82 225.67 89.82L225.67 89.82Q224.19 89.82 221.61 88.96Q219.02 88.10 215.33 84.66L215.33 84.66Q214.10 83.18 211.03 80.72Q207.95 78.26 204.75 76.04L204.75 76.04Q201.55 73.58 194.78 67.55Q188.02 61.52 180.39 54.88L180.39 54.88L163.16 39.38L138.30 63.74Q127.72 74.32 119.23 82.07Q110.74 89.82 109.02 91.30L109.02 91.30Q106.31 93.02 103.11 93.02L103.11 93.02Q102.38 93.02 100.16 92.78Q97.95 92.53 96.22 89.82L96.22 89.82Q94.99 88.59 94.99 86.87L94.99 86.87Q94.99 84.16 98.44 79.49ZM139.29 73.09L139.29 73.09Q143.96 71.61 163.16 71.37L163.16 71.37Q173.74 70.88 181.86 70.88L181.86 70.88L191.46 70.88Q197.12 72.60 197.74 74.81Q198.35 77.03 198.35 77.77L198.35 77.77Q198.35 80.72 195.40 84.16L195.40 84.16Q194.17 86.38 188.88 86.75Q183.59 87.12 166.11 87.12L166.11 87.12Q161.19 87.12 157.01 87.12L157.01 87.12Q144.46 87.12 139.66 85.89Q134.86 84.66 134.86 80.47L134.86 80.47Q134.86 80.23 134.86 79.73L134.86 79.73Q134.86 79.24 134.86 78.75L134.86 78.75Q134.86 74.57 139.29 73.09ZM75.80 164.39L75.80 164.39Q78.01 160.70 80.47 160.58Q82.93 160.45 83.43 160.45L83.43 160.45Q87.61 160.45 90.56 163.41L90.56 163.41Q94.99 169.56 98.68 179.77Q102.38 189.98 102.38 195.40L102.38 195.40Q102.38 196.14 102.38 196.63L102.38 196.63Q101.14 199.83 98.31 200.94Q95.48 202.04 94.01 202.04L94.01 202.04Q92.04 202.04 90.56 201.06L90.56 201.06Q89.58 200.07 86.87 195.28Q84.16 190.48 81.21 183.83L81.21 183.83Q76.29 173.50 75.67 171.04Q75.06 168.57 75.06 167.34L75.06 167.34Q75.06 165.62 75.80 164.39ZM19.20 184.32L19.20 184.32Q19.93 179.40 21.78 174.48Q23.63 169.56 24.86 167.34L24.86 167.34Q26.33 164.64 28.30 163.41Q30.27 162.18 32.98 162.18L32.98 162.18Q38.14 162.18 38.88 164.76Q39.62 167.34 39.62 169.31L39.62 169.31Q39.62 173.50 38.14 180.14L38.14 180.14Q34.21 199.34 32.36 202.29Q30.52 205.24 27.81 205.24L27.81 205.24Q26.33 205.24 24.12 204.50L24.12 204.50Q18.70 203.27 17.96 200.20Q17.23 197.12 17.23 195.40L17.23 195.40Q17.23 191.21 19.20 184.32ZM204.75 120.83L183.83 120.83L184.82 148.89L204.75 149.63L204.75 120.83ZM129.94 120.83L129.94 146.18L142.73 146.18L142.73 120.83L129.94 120.83ZM158.48 145.44L158.48 145.44Q159.22 147.41 162.42 147.41L162.42 147.41Q163.16 147.41 163.90 147.41L163.90 147.41L169.80 147.90L169.80 138.06Q169.80 133.63 169.56 129.94Q169.31 126.25 168.82 124.52L168.82 124.52Q168.33 122.31 167.10 121.57Q165.87 120.83 163.16 120.83L163.16 120.83Q162.42 120.59 161.68 120.59L161.68 120.59Q159.71 120.59 159.22 121.82Q158.73 123.05 158.24 128.46L158.24 128.46Q157.99 134.37 157.99 138.06L157.99 138.06Q157.99 143.96 158.48 145.44Z" stroke="#000" fill="black" /></svg>